PathFileType	4	(X/Y/Z)	/tmp/tmpjnq7zxqp/Me/MarkerData/jogging03_segment_0.trc
DataRate	CameraRate	NumFrames	NumMarkers	Units	OrigDataRate	OrigDataStartFrame	OrigNumFrames
100.092	100.092	8	39	m	100.092	950	1086
Frame#	Time	C7			CLAV			LANK			LASI			LBHD			LELB			LFHD			LFIN			LFRM			LHEE			LKNE			LPSI			LSHO			LTHI			LTIB			LTOE			LUPA			LWRA			LWRB			RANK			RASI			RBAK			RBHD			RELB			RFHD			RFIN			RFRM			RHEE			RKNE			RPSI			RSHO			RTHI			RTIB			RTOE			RUPA			RWRA			RWRB			STRN			T10		
		X1	Y1	Z1	X2	Y2	Z2	X3	Y3	Z3	X4	Y4	Z4	X5	Y5	Z5	X6	Y6	Z6	X7	Y7	Z7	X8	Y8	Z8	X9	Y9	Z9	X10	Y10	Z10	X11	Y11	Z11	X12	Y12	Z12	X13	Y13	Z13	X14	Y14	Z14	X15	Y15	Z15	X16	Y16	Z16	X17	Y17	Z17	X18	Y18	Z18	X19	Y19	Z19	X20	Y20	Z20	X21	Y21	Z21	X22	Y22	Z22	X23	Y23	Z23	X24	Y24	Z24	X25	Y25	Z25	X26	Y26	Z26	X27	Y27	Z27	X28	Y28	Z28	X29	Y29	Z29	X30	Y30	Z30	X31	Y31	Z31	X32	Y32	Z32	X33	Y33	Z33	X34	Y34	Z34	X35	Y35	Z35	X36	Y36	Z36	X37	Y37	Z37	X38	Y38	Z38	X39	Y39	Z39

951	9.49125	-0.146283	1.4106	-0.000220768	-0.298194	1.31193	0.0379347	0.00746619	0.0980272	0.0834046	-0.153241	0.935573	0.174643	-0.204041	1.54463	0.0813693	-0.198056	1.03213	0.294446	-0.311265	1.58341	0.146717	-0.468966	1.0778	0.15137	-0.320247	0.989963	0.21178	0.0830657	0.0742286	0.0367207	-0.227295	0.413313	0.158006	-0.0339935	0.946669	0.0221523	-0.169385	1.37479	0.189519	-0.199053	0.604327	0.192493	-0.0793488	0.212164	0.130486	-0.155099	0.0623438	0.0128013	-0.194369	1.20709	0.28199	-0.368098	1.05579	0.141003	-0.403397	1.00213	0.172405	-0.0163428	0.234984	-0.0977895	-0.201705	0.922769	-0.141665	-0.0993229	1.28295	-0.124016	-0.292987	1.5405	-0.0376923	-0.15851	1.08518	-0.285615	-0.384987	1.57192	0.0412991	-0.385565	0.930514	-0.0983919	-0.19316	1.01277	-0.248878	0.0630349	0.255109	-0.0338613	-0.356425	0.458407	-0.110161	-0.0443055	0.938229	-0.040462	-0.257426	1.38317	-0.155545	-0.25919	0.76724	-0.155881	-0.24513	0.395882	-0.133143	-0.0951341	0.0851612	-0.0599476	-0.192538	1.1677	-0.261223	-0.282257	0.979473	-0.114249	-0.29585	0.92071	-0.15384	-0.316062	1.14726	0.0492648	-0.0723552	1.18043	-0.0115299
952	9.50124	-0.145362	1.41517	3.61578e-05	-0.299062	1.31714	0.0356918	0.0258375	0.1005	0.083814	-0.152865	0.939267	0.175206	-0.204882	1.5496	0.0813982	-0.210587	1.03997	0.294744	-0.312796	1.58781	0.145889	-0.475622	1.09516	0.144493	-0.331744	1.00214	0.208732	0.101891	0.077873	0.0370985	-0.210326	0.41505	0.156615	-0.0335191	0.951817	0.0226094	-0.173149	1.38106	0.18965	-0.188618	0.606396	0.191268	-0.0609445	0.21531	0.130281	-0.135297	0.062482	0.0127405	-0.202532	1.21422	0.281978	-0.375263	1.06962	0.136785	-0.413447	1.01724	0.167249	-0.0374143	0.223936	-0.0971771	-0.20168	0.92924	-0.140729	-0.0965631	1.28835	-0.121689	-0.29262	1.54594	-0.0386249	-0.144367	1.0969	-0.287779	-0.385442	1.57674	0.0396902	-0.374215	0.935538	-0.109459	-0.17874	1.02306	-0.25277	0.0437687	0.237913	-0.033808	-0.364464	0.468522	-0.108941	-0.0440294	0.944572	-0.0402306	-0.253547	1.38945	-0.156367	-0.260036	0.77508	-0.155684	-0.256272	0.398758	-0.132418	-0.128208	0.0818279	-0.0588156	-0.180731	1.17827	-0.263765	-0.271292	0.986702	-0.121337	-0.282299	0.927818	-0.161861	-0.317334	1.15237	0.0468743	-0.071514	1.18621	-0.00983926
953	9.51123	-0.145393	1.42065	0.000618752	-0.300171	1.32294	0.0333264	0.0436008	0.103671	0.0845086	-0.153314	0.943583	0.175619	-0.205756	1.55508	0.0811637	-0.222301	1.04863	0.294856	-0.314312	1.59293	0.144795	-0.48136	1.11276	0.137909	-0.342373	1.01492	0.20572	0.120139	0.0825064	0.037856	-0.194133	0.418083	0.155432	-0.0333321	0.958144	0.0237925	-0.177177	1.38804	0.189624	-0.178388	0.609457	0.189949	-0.043278	0.219558	0.130067	-0.115565	0.0627383	0.0128036	-0.210839	1.22216	0.281871	-0.381704	1.0839	0.132719	-0.422472	1.03281	0.162202	-0.0596035	0.212276	-0.0965045	-0.20158	0.936232	-0.139818	-0.0941901	1.29493	-0.119213	-0.292298	1.55197	-0.039716	-0.130588	1.10912	-0.289473	-0.38588	1.58234	0.0378626	-0.362913	0.941735	-0.119993	-0.164726	1.03404	-0.256312	0.022896	0.220014	-0.0333326	-0.371117	0.478741	-0.107916	-0.0439944	0.951304	-0.0394395	-0.250163	1.39603	-0.157055	-0.260777	0.783218	-0.155625	-0.266642	0.401406	-0.131852	-0.161626	0.0787892	-0.0574379	-0.169435	1.18955	-0.266029	-0.260578	0.994898	-0.128039	-0.269066	0.936	-0.16929	-0.318926	1.15812	0.0439532	-0.0714854	1.19195	-0.00768629
954	9.52122	-0.146252	1.42685	0.00151801	-0.301451	1.32925	0.0308205	0.0606224	0.107535	0.085504	-0.154455	0.948394	0.175885	-0.206653	1.56098	0.0806559	-0.233292	1.05786	0.294869	-0.315784	1.59861	0.143431	-0.486284	1.13033	0.13163	-0.352093	1.02804	0.202661	0.137975	0.0883759	0.0388042	-0.178628	0.42213	0.15434	-0.0339159	0.965127	0.0252953	-0.181518	1.3956	0.189436	-0.168659	0.613518	0.18863	-0.0261899	0.224822	0.129716	-0.0958085	0.0628511	0.0127664	-0.219257	1.23082	0.28164	-0.38745	1.09839	0.128865	-0.43055	1.04855	0.157234	-0.0830718	0.20024	-0.0959048	-0.201095	0.943539	-0.138909	-0.092178	1.3025	-0.11674	-0.292065	1.55851	-0.0409277	-0.117137	1.12173	-0.290756	-0.386305	1.58858	0.0357798	-0.351745	0.948865	-0.129991	-0.151042	1.0456	-0.259496	0.000353652	0.201688	-0.0325351	-0.376189	0.488788	-0.107154	-0.0441707	0.958317	-0.0382257	-0.247317	1.40277	-0.157712	-0.261401	0.791518	-0.155657	-0.276261	0.403746	-0.131508	-0.195514	0.0762615	-0.0554938	-0.158805	1.20109	-0.267787	-0.250386	1.00392	-0.134442	-0.25618	0.945123	-0.176057	-0.320621	1.16456	0.040483	-0.072119	1.19782	-0.00504078
955	9.53122	-0.147496	1.43341	0.00260553	-0.30283	1.33596	0.0281763	0.0767692	0.112422	0.086494	-0.156331	0.953536	0.176177	-0.207577	1.56718	0.0799479	-0.243678	1.0675	0.294835	-0.317254	1.60474	0.141817	-0.490386	1.14764	0.125494	-0.360976	1.04131	0.19958	0.155201	0.0954114	0.039686	-0.163415	0.427026	0.153218	-0.0354116	0.972476	0.0269346	-0.186317	1.40357	0.18905	-0.159579	0.618434	0.187301	-0.00951398	0.23086	0.129537	-0.0758338	0.0627491	0.0126418	-0.227537	1.23983	0.280959	-0.392563	1.11291	0.125188	-0.43775	1.06423	0.152318	-0.107505	0.18836	-0.0950089	-0.200588	0.951163	-0.138089	-0.0905341	1.31061	-0.114362	-0.291856	1.56533	-0.0422244	-0.104267	1.13464	-0.291699	-0.386735	1.59528	0.0334587	-0.341022	0.956669	-0.139458	-0.137678	1.05761	-0.262366	-0.0240552	0.183043	-0.0314071	-0.379649	0.498441	-0.106626	-0.044709	0.965629	-0.0366562	-0.244944	1.40965	-0.158447	-0.261904	0.799937	-0.155756	-0.285126	0.405726	-0.131369	-0.229926	0.0745851	-0.0532589	-0.148946	1.21264	-0.269079	-0.241047	1.01346	-0.140935	-0.243922	0.954782	-0.182522	-0.322319	1.17164	0.0365503	-0.0731699	1.20413	-0.00190828
956	9.54121	-0.148863	1.44002	0.0036718	-0.304132	1.34293	0.0254546	0.0921922	0.117773	0.0876707	-0.1589	0.958932	0.176523	-0.208511	1.57354	0.0790461	-0.25351	1.07734	0.294756	-0.318695	1.61115	0.139964	-0.493912	1.16447	0.119668	-0.369124	1.05451	0.196482	0.1717	0.103424	0.0407637	-0.148538	0.432692	0.151995	-0.0374729	0.980265	0.028658	-0.191627	1.41174	0.188429	-0.1512	0.623988	0.186017	0.00650416	0.23752	0.129681	-0.0555769	0.0626056	0.0126989	-0.235724	1.24908	0.28017	-0.397048	1.1273	0.121683	-0.444138	1.07962	0.147443	-0.13289	0.176788	-0.0936494	-0.199945	0.959038	-0.137459	-0.0891406	1.31887	-0.112057	-0.291626	1.57229	-0.04384	-0.09227	1.14779	-0.292364	-0.387119	1.60222	0.0309423	-0.330776	0.964875	-0.148466	-0.125049	1.06996	-0.264511	-0.0499956	0.164619	-0.0302698	-0.381522	0.507444	-0.106339	-0.0457237	0.973328	-0.0349134	-0.242858	1.4166	-0.159218	-0.26227	0.808414	-0.155873	-0.293207	0.407327	-0.131414	-0.264836	0.0741004	-0.0509969	-0.139886	1.22421	-0.270101	-0.232262	1.0232	-0.147032	-0.23228	0.964724	-0.188682	-0.324023	1.17921	0.0322727	-0.0745363	1.21104	0.00159539
957	9.5512	-0.150297	1.4465	0.0044973	-0.305455	1.35002	0.0227108	0.106939	0.123481	0.0889461	-0.161779	0.964598	0.176776	-0.209458	1.57991	0.0779857	-0.262792	1.08729	0.294447	-0.320125	1.61767	0.137879	-0.496954	1.18067	0.114146	-0.376534	1.06751	0.193351	0.187271	0.112161	0.0418606	-0.134275	0.439015	0.150756	-0.0398274	0.988528	0.0303374	-0.196959	1.42005	0.187674	-0.143412	0.629923	0.184922	0.0217515	0.244803	0.129927	-0.0352531	0.0626252	0.0128862	-0.243737	1.25848	0.279352	-0.400993	1.1414	0.118406	-0.449778	1.09456	0.142619	-0.159349	0.165105	-0.0921094	-0.198816	0.96721	-0.137233	-0.0879461	1.32703	-0.109735	-0.291395	1.57923	-0.0457833	-0.0812592	1.16101	-0.292677	-0.387499	1.60922	0.0282094	-0.320964	0.9732	-0.157039	-0.113303	1.08243	-0.266413	-0.0777644	0.146644	-0.0290648	-0.381819	0.515495	-0.106372	-0.0471295	0.981424	-0.0331713	-0.240975	1.42351	-0.15999	-0.262517	0.816841	-0.155954	-0.300429	0.408548	-0.131613	-0.299912	0.0749855	-0.0489031	-0.131724	1.23566	-0.270743	-0.223637	1.03312	-0.152597	-0.221194	0.974755	-0.19443	-0.32569	1.18717	0.0280316	-0.076192	1.21848	0.00526548
958	9.56119	-0.151715	1.45274	0.00496024	-0.306901	1.35709	0.0199623	0.120922	0.129605	0.0902402	-0.164619	0.970469	0.176825	-0.210332	1.58613	0.0768158	-0.271541	1.09717	0.29386	-0.321534	1.62412	0.135602	-0.499561	1.1961	0.108866	-0.383269	1.08013	0.190224	0.201772	0.121421	0.0429191	-0.120728	0.445815	0.149733	-0.0425438	0.997058	0.0318395	-0.202316	1.42835	0.186735	-0.136136	0.636002	0.183996	0.0362715	0.252548	0.130225	-0.0151729	0.0626024	0.0133394	-0.251539	1.26785	0.278408	-0.404487	1.15504	0.115316	-0.454721	1.10891	0.137903	-0.18684	0.153987	-0.090886	-0.198293	0.975288	-0.136936	-0.0869637	1.33498	-0.10734	-0.291103	1.58596	-0.0480111	-0.0712482	1.17416	-0.292608	-0.387838	1.61605	0.0252288	-0.311464	0.981453	-0.165105	-0.102414	1.09487	-0.268215	-0.107449	0.12903	-0.0279193	-0.380611	0.522438	-0.106621	-0.048814	0.989792	-0.0316228	-0.239299	1.43029	-0.160735	-0.262723	0.825016	-0.155975	-0.306764	0.409394	-0.131913	-0.33482	0.0775809	-0.0462393	-0.124444	1.2469	-0.271024	-0.214914	1.04309	-0.157601	-0.210626	0.984671	-0.199696	-0.327388	1.19536	0.0241015	-0.0780778	1.22626	0.00898434
